#N canvas 0 0 1354 685 10;
#X obj 257 580 outlet~;
#X obj 251 81 select 0 1 2 3;
#X obj 323 37 inlet;
#N canvas 0 0 450 300 (subpatch) 0;
#X array Kick 832388 float 2;
#X coords 0 1 832388 -1 200 140 1 0 0;
#X restore 748 77 graph;
#X obj 227 492 tabplay~ Kick;
#X obj 310 492 tabplay~ Snare;
#X obj 397 492 tabplay~ Hihat;
#N canvas 0 0 450 300 (subpatch) 0;
#X array Snare 832388 float 2;
#X coords 0 1 832388 -1 200 140 1 0 0;
#X restore 745 235 graph;
#N canvas 0 0 450 300 (subpatch) 0;
#X array Crash 832388 float 2;
#X coords 0 1 832388 -1 200 140 1 0 0;
#X restore 963 77 graph;
#N canvas 0 0 450 300 (subpatch) 0;
#X array Hihat 832388 float 2;
#X coords 0 1 832388 -1 200 140 1 0 0;
#X restore 960 235 graph;
#X obj 486 492 tabplay~ Crash;
#X obj -227 219 soundfiler;
#X obj -226 428 soundfiler;
#X obj -225 535 soundfiler;
#X obj -227 321 soundfiler;
#X obj -226 97 loadbang;
#X obj -226 350 loadbang;
#X obj -225 457 loadbang;
#X obj -227 243 loadbang;
#X msg -226 181 read -resize Kick.wav Kick;
#X msg -226 395 read -resize Snare.wav Snare;
#X msg -227 288 read -resize Hihat.wav Hihat;
#X msg -225 502 read -resize Crash.wav Crash;
#X obj 195 476 bng 15 250 50 0 empty empty empty 17 7 0 10 -262144
-1 -1;
#X text 348 76 Selects a Drum depending on what number message is recieved
from theradio button grid;
#X text 232 452 Plays the sound sample from the array when it recieves
a bang message;
#X text 741 382 Arrays that store sound samples;
#X text -58 180 Loads the sound sample to an array;
#X text -139 228;
#X text -153 217 Writes the sound information to the Array;
#X connect 1 0 4 0;
#X connect 1 1 5 0;
#X connect 1 2 6 0;
#X connect 1 3 10 0;
#X connect 2 0 1 0;
#X connect 4 0 0 0;
#X connect 5 0 0 0;
#X connect 6 0 0 0;
#X connect 10 0 0 0;
#X connect 15 0 19 0;
#X connect 16 0 20 0;
#X connect 17 0 22 0;
#X connect 18 0 21 0;
#X connect 19 0 11 0;
#X connect 20 0 12 0;
#X connect 21 0 14 0;
#X connect 22 0 13 0;
#X connect 23 0 4 0;
