#N canvas -8 -8 1366 685 10;
#X obj 221 242 mtof;
#X obj 221 295 sig~;
#X obj 218 614 *~;
#X obj 394 73 tgl 15 0 empty empty empty 17 7 0 10 -262144 -1 -1 0
1;
#X floatatom 449 72 5 0 0 0 - - -;
#X obj 394 98 vradio 15 1 0 7 empty empty empty 0 -8 0 10 -262144 -1
-1 2;
#X obj 409 98 vradio 15 1 0 7 empty empty empty 0 -8 0 10 -262144 -1
-1 2;
#X obj 424 98 vradio 15 1 0 7 empty empty empty 0 -8 0 10 -262144 -1
-1 2;
#X obj 439 98 vradio 15 1 0 7 empty empty empty 0 -8 0 10 -262144 -1
-1 2;
#X obj 454 98 vradio 15 1 0 7 empty empty empty 0 -8 0 10 -262144 -1
-1 2;
#X obj 469 98 vradio 15 1 0 7 empty empty empty 0 -8 0 10 -262144 -1
-1 1;
#X obj 484 98 vradio 15 1 0 7 empty empty empty 0 -8 0 10 -262144 -1
-1 4;
#X obj 499 98 vradio 15 1 0 7 empty empty empty 0 -8 0 10 -262144 -1
-1 4;
#X obj 514 98 vradio 15 1 0 7 empty empty empty 0 -8 0 10 -262144 -1
-1 4;
#X obj 529 98 vradio 15 1 0 7 empty empty empty 0 -8 0 10 -262144 -1
-1 4;
#X obj 544 98 vradio 15 1 0 7 empty empty empty 0 -8 0 10 -262144 -1
-1 1;
#X obj 559 98 vradio 15 1 0 7 empty empty empty 0 -8 0 10 -262144 -1
-1 2;
#X obj 574 98 vradio 15 1 0 7 empty empty empty 0 -8 0 10 -262144 -1
-1 2;
#X obj 589 98 vradio 15 1 0 7 empty empty empty 0 -8 0 10 -262144 -1
-1 2;
#X obj 604 98 vradio 15 1 0 7 empty empty empty 0 -8 0 10 -262144 -1
-1 2;
#X obj 619 98 vradio 15 1 0 7 empty empty empty 0 -8 0 10 -262144 -1
-1 1;
#X obj 392 -4 sel 0 1 2 3 4 5 6 7 8 9 10 11 12 13 14 15;
#X obj 728 26 hip~;
#X floatatom 728 10 5 0 0 0 - - -;
#X obj 728 130 knob 32 32 0 9000 0 0 empty empty empty 0 -8 0 8 -262144
-1 -1 0 1;
#X obj 670 26 lop~;
#X floatatom 670 10 5 0 0 0 - - -;
#X obj 670 130 knob 32 32 9000 10 0 0 empty empty empty 0 -8 0 8 -262144
-1 -1 0 1;
#X obj 814 26 bp~;
#X floatatom 786 9 5 0 0 0 - - -;
#X floatatom 819 10 5 0 0 0 - - -;
#X obj 802 100 knob 32 32 600 20000 0 0 empty empty empty 0 -8 0 8
-262144 -1 -1 0 1;
#X obj 802 153 knob 32 32 0 10 0 0 empty empty empty 0 -8 0 8 -1 -257985
-1 0 1;
#X obj 1266 84 vsl 15 128 0.0001 1 1 0 empty empty empty 0 -9 0 10
-262144 -1 -1 8600 1;
#X floatatom 1382 9 10 0 0 0 - - -;
#X obj 1400 -27 *~;
#X obj 1457 -9 dac~;
#X obj 732 504 output~;
#X obj 1244 6 pan~;
#X obj 1368 -27 *~;
#X obj 1189 130 knob 32 32 -45 45 0 0 empty empty empty 0 -8 0 8 -262144
-1 -1 1550 1;
#X msg 1244 -11 0;
#X obj 1244 -28 loadbang;
#X obj 1064 44 freeverb~;
#X msg 1199 6 wet \$1;
#X msg 1048 7 dry \$1;
#X msg 1125 6 roomsize \$1;
#X obj 1074 130 knob 32 32 0 1 0 0 empty empty empty 0 -8 0 8 -262144
-1 -1 0 1;
#X obj 1112 130 knob 32 32 0 1 0 0 empty empty empty 0 -8 0 8 -262144
-1 -1 0 1;
#X obj 1036 130 knob 32 32 0 1 0 0 empty empty empty 0 -8 0 8 -262144
-1 -1 0 1;
#X msg 1048 -10 1;
#X obj 1048 -27 loadbang;
#X obj 1125 -28 loadbang;
#X msg 1125 -11 0;
#X msg 670 -8 9000;
#X obj 670 -25 loadbang;
#X msg 427 -24 132;
#X obj 454 -24 loadbang;
#X floatatom 977 6 5 0 0 0 - - -;
#X obj 977 130 knob 32 32 0 20 0 0 empty empty empty 0 -8 0 8 -262144
-1 -1 0 1;
#X obj 221 269 *;
#X obj 366 113 vradio 15 1 0 5 empty empty empty 0 -8 0 10 -262144
-1 -1 2;
#X obj 339 -24 loadbang;
#X msg 339 -7 2;
#X obj 1368 -9 pvu~;
#X obj 1299 87 vu 15 120 empty empty -1 -8 0 10 -66577 -1 1 0;
#X obj 1400 -9 pvu~;
#X obj 1345 88 vu 15 120 empty empty -1 -8 0 10 -66577 -1 1 0;
#X obj 977 -28 loadbang;
#X msg 977 -11 0;
#X floatatom 876 8 5 0 0 0 - - -;
#X obj 917 130 knob 32 32 0 50 0 0 empty empty empty 0 -8 0 8 -262144
-1 -1 0 1;
#X obj 874 130 knob 32 32 0 50 0 0 empty empty empty 0 -8 0 8 -262144
-1 -1 0 1;
#X msg 876 -9 0;
#X obj 876 -26 loadbang;
#X obj 392 -24 Tempo;
#X obj 168 188 Octive;
#X floatatom 912 8 5 0 0 0 - - -;
#X obj 876 25 Vibrato;
#X text 875 163 Rate;
#X text 911 163 Vibrato;
#X obj 977 22 LFO;
#X obj 219 474 Square;
#X obj 221 203 Note;
#X text 661 167 Low pass;
#X msg 728 -8 0;
#X obj 728 -25 loadbang;
#X text 716 168 High Pass;
#X msg 786 -8 600;
#X msg 812 -8 0;
#X obj 786 -25 loadbang;
#X text 789 185 Resonance;
#X text 791 132 Frequency;
#X text 777 82 The Band Pass;
#X text 887 97 VIBRATO;
#X text 969 97 TREMOLO;
#X text 979 163 Rate;
#X text 1079 163 Dry;
#X text 1038 163 Size;
#X text 1117 163 Wet;
#X text 1071 97 REVERB;
#X text 1194 163 Pan;
#X text 1248 118 M;
#X text 1248 127 A;
#X text 1248 136 S;
#X text 1248 145 T;
#X text 1248 154 E;
#X text 1248 163 R;
#X text 1185 97 STEREO;
#X text 482 72 TEMPO;
#X text 410 72 PLAY;
#X connect 0 0 60 0;
#X connect 1 0 78 0;
#X connect 2 0 81 0;
#X connect 3 0 75 0;
#X connect 4 0 75 1;
#X connect 5 0 83 0;
#X connect 6 0 83 0;
#X connect 7 0 83 0;
#X connect 8 0 83 0;
#X connect 9 0 83 0;
#X connect 10 0 83 0;
#X connect 11 0 83 0;
#X connect 12 0 83 0;
#X connect 13 0 83 0;
#X connect 14 0 83 0;
#X connect 15 0 83 0;
#X connect 16 0 83 0;
#X connect 17 0 83 0;
#X connect 18 0 83 0;
#X connect 19 0 83 0;
#X connect 20 0 83 0;
#X connect 21 0 5 0;
#X connect 21 1 6 0;
#X connect 21 2 7 0;
#X connect 21 3 8 0;
#X connect 21 4 9 0;
#X connect 21 5 10 0;
#X connect 21 6 11 0;
#X connect 21 7 12 0;
#X connect 21 8 13 0;
#X connect 21 9 14 0;
#X connect 21 10 15 0;
#X connect 21 11 16 0;
#X connect 21 12 17 0;
#X connect 21 13 18 0;
#X connect 21 14 19 0;
#X connect 21 15 20 0;
#X connect 22 0 28 0;
#X connect 23 0 22 1;
#X connect 24 0 23 0;
#X connect 25 0 22 0;
#X connect 26 0 25 1;
#X connect 27 0 26 0;
#X connect 28 0 43 0;
#X connect 28 0 43 1;
#X connect 29 0 28 1;
#X connect 30 0 28 2;
#X connect 31 0 29 0;
#X connect 32 0 30 0;
#X connect 33 0 34 0;
#X connect 34 0 35 1;
#X connect 34 0 39 1;
#X connect 35 0 36 1;
#X connect 35 0 66 0;
#X connect 38 0 39 0;
#X connect 38 1 35 0;
#X connect 39 0 36 0;
#X connect 39 0 64 0;
#X connect 40 0 38 1;
#X connect 41 0 40 0;
#X connect 42 0 41 0;
#X connect 43 0 38 0;
#X connect 44 0 43 0;
#X connect 45 0 43 0;
#X connect 46 0 43 0;
#X connect 47 0 45 0;
#X connect 48 0 44 0;
#X connect 49 0 46 0;
#X connect 50 0 47 0;
#X connect 51 0 50 0;
#X connect 52 0 53 0;
#X connect 53 0 49 0;
#X connect 53 0 48 0;
#X connect 54 0 27 0;
#X connect 55 0 54 0;
#X connect 56 0 4 0;
#X connect 57 0 56 0;
#X connect 58 0 81 1;
#X connect 59 0 58 0;
#X connect 60 0 1 0;
#X connect 61 0 76 0;
#X connect 62 0 63 0;
#X connect 63 0 61 0;
#X connect 64 0 65 0;
#X connect 66 0 67 0;
#X connect 68 0 69 0;
#X connect 69 0 59 0;
#X connect 70 0 78 1;
#X connect 71 0 77 0;
#X connect 72 0 70 0;
#X connect 73 0 72 0;
#X connect 73 0 71 0;
#X connect 74 0 73 0;
#X connect 75 0 21 0;
#X connect 76 0 60 1;
#X connect 77 0 78 2;
#X connect 78 0 82 0;
#X connect 81 0 25 0;
#X connect 82 0 2 0;
#X connect 83 0 0 0;
#X connect 83 1 2 1;
#X connect 85 0 24 0;
#X connect 86 0 85 0;
#X connect 88 0 31 0;
#X connect 89 0 32 0;
#X connect 90 0 88 0;
#X connect 90 0 89 0;
