#N canvas 609 46 566 300 10;
#X msg 175 156 1;
#X msg 147 156 2;
#X msg 202 156 0.5;
#X obj 158 109 sel 0 1 2 3 4;
#X msg 118 156 4;
#X msg 230 156 0.25;
#X obj 158 86 inlet;
#X obj 164 210 outlet;
#X text 252 105 Select object which sends a bang acording to the radio
button;
#X text 269 152 when these messages get a bang from the select object
they multiply the frequency content of the ocilator to change the octaves
of the notes.;
#X connect 0 0 7 0;
#X connect 1 0 7 0;
#X connect 2 0 7 0;
#X connect 3 0 4 0;
#X connect 3 1 1 0;
#X connect 3 2 0 0;
#X connect 3 3 2 0;
#X connect 3 4 5 0;
#X connect 4 0 7 0;
#X connect 5 0 7 0;
#X connect 6 0 3 0;
