#N canvas -8 -8 1366 685 10;
#X obj 186 84 expr~ $v1 > 0.5;
#X obj 185 115 *~ 2;
#X obj 184 144 -~ 1;
#X obj 186 62 phasor~;
#X obj 187 36 inlet~;
#X obj 183 172 outlet~;
#X text 255 60 An oscilator which makes a sawtooth wave;
#X text 232 123 Converts a sawtooth wave to a square wave;
#X connect 0 0 1 0;
#X connect 1 0 2 0;
#X connect 2 0 5 0;
#X connect 3 0 0 0;
#X connect 4 0 3 0;
